<?xml version="1.0" encoding="utf-8"?>
<!-- Generator: Adobe Illustrator 24.2.1, SVG Export Plug-In . SVG Version: 6.00 Build 0)  -->
<svg version="1.1" id="Layer_1" xmlns="http://www.w3.org/2000/svg" xmlns:xlink="http://www.w3.org/1999/xlink" x="0px" y="0px"
	 width="293.074px" height="298.859px" viewBox="0 0 293.074 298.859" enable-background="new 0 0 293.074 298.859"
	 xml:space="preserve">
<path fill="#FFFFFF" d="M146.537,295.554C65.736,295.554,0,229.817,0,149.016S65.736,2.479,146.537,2.479
	s146.537,65.736,146.537,146.537S227.338,295.554,146.537,295.554z M146.537,24.479C77.867,24.479,22,80.347,22,149.016
	s55.867,124.537,124.537,124.537s124.537-55.867,124.537-124.537S215.207,24.479,146.537,24.479z"/>
<path fill="#FFFFFF" d="M146.895,205.422c-30.939,0-56.111-25.171-56.111-56.111S115.955,93.2,146.895,93.2
	c30.94,0,56.111,25.171,56.111,56.111S177.834,205.422,146.895,205.422z M146.895,105.39c-24.218,0-43.92,19.703-43.92,43.921
	s19.703,43.921,43.92,43.921c24.218,0,43.921-19.703,43.921-43.921S171.113,105.39,146.895,105.39z"/>
<rect x="18.409" y="143.016" fill="#FFFFFF" width="77.547" height="12"/>
<rect x="197.433" y="143.016" fill="#FFFFFF" width="77.547" height="12"/>
</svg>
