<?xml version="1.0" encoding="utf-8"?>
<!-- Generator: Adobe Illustrator 24.2.1, SVG Export Plug-In . SVG Version: 6.00 Build 0)  -->
<svg version="1.1" id="Layer_1" xmlns="http://www.w3.org/2000/svg" xmlns:xlink="http://www.w3.org/1999/xlink" x="0px" y="0px"
	 width="293.1px" height="298.9px" viewBox="0 0 293.1 298.9" style="enable-background:new 0 0 293.1 298.9;" xml:space="preserve"
	>
<style type="text/css">
	.st0{fill:#73CDF4;}
</style>
<path class="st0" d="M146.5,295.6C65.7,295.6,0,229.8,0,149S65.7,2.5,146.5,2.5S293.1,68.2,293.1,149S227.3,295.6,146.5,295.6z
	 M146.5,24.5C77.9,24.5,22,80.3,22,149s55.9,124.5,124.5,124.5S271.1,217.7,271.1,149S215.2,24.5,146.5,24.5z"/>
<path class="st0" d="M146.9,205.4c-30.9,0-56.1-25.2-56.1-56.1s25.2-56.1,56.1-56.1s56.1,25.2,56.1,56.1S177.8,205.4,146.9,205.4z
	 M146.9,105.4c-24.2,0-43.9,19.7-43.9,43.9s19.7,43.9,43.9,43.9c24.2,0,43.9-19.7,43.9-43.9S171.1,105.4,146.9,105.4z"/>
<rect x="18.4" y="143" class="st0" width="77.5" height="12"/>
<rect x="197.4" y="143" class="st0" width="77.5" height="12"/>
</svg>
