<?xml version="1.0" encoding="utf-8"?>
<!-- Generator: Adobe Illustrator 24.2.1, SVG Export Plug-In . SVG Version: 6.00 Build 0)  -->
<svg version="1.1" id="Layer_1" xmlns="http://www.w3.org/2000/svg" xmlns:xlink="http://www.w3.org/1999/xlink" x="0px" y="0px"
	 width="274.37px" height="274.37px" viewBox="0 0 274.37 274.37" enable-background="new 0 0 274.37 274.37" xml:space="preserve">
<g id="XMLID_1_">
	<g>
		<path fill="#E4323F" d="M266.37,137.19h-0.74h-77.55l-0.52,0.01c-0.15-27.49-22.49-49.73-50.02-49.73s-49.87,22.24-50.02,49.73
			l-0.92-0.01H9.05H8C8,65.84,65.84,8,137.18,8C208.53,8,266.37,65.84,266.37,137.19z"/>
		<path fill="#FDFBFB" d="M187.56,137.2c0,0.09,0,0.19,0,0.28c0,27.62-22.4,50.02-50.02,50.02s-50.02-22.4-50.02-50.02
			c0-0.09,0-0.19,0-0.28c0.15-27.49,22.49-49.73,50.02-49.73S187.41,109.71,187.56,137.2z"/>
		<path fill="#FDFBFB" d="M87.52,137.48c0,27.62,22.4,50.02,50.02,50.02s50.02-22.4,50.02-50.02c0-0.09,0-0.19,0-0.28l0.52-0.01
			h77.55h0.74c0,71.34-57.84,129.18-129.19,129.18C65.84,266.37,8,208.53,8,137.19h1.05H86.6l0.92,0.01
			C87.52,137.29,87.52,137.39,87.52,137.48z"/>
	</g>
	<g>
		<path fill="none" stroke="#000000" stroke-width="16" stroke-miterlimit="10" d="M266.37,137.19
			c0,71.34-57.84,129.18-129.19,129.18C65.84,266.37,8,208.53,8,137.19C8,65.84,65.84,8,137.18,8
			C208.53,8,266.37,65.84,266.37,137.19z"/>
		<path fill="none" stroke="#000000" stroke-width="12.19" stroke-miterlimit="10" d="M187.56,137.2c0,0.09,0,0.19,0,0.28
			c0,27.62-22.4,50.02-50.02,50.02s-50.02-22.4-50.02-50.02c0-0.09,0-0.19,0-0.28c0.15-27.49,22.49-49.73,50.02-49.73
			S187.41,109.71,187.56,137.2z"/>
		<line fill="none" stroke="#000000" stroke-width="12" stroke-miterlimit="10" x1="9.05" y1="137.19" x2="86.6" y2="137.19"/>
		<line fill="none" stroke="#000000" stroke-width="12" stroke-miterlimit="10" x1="188.08" y1="137.19" x2="265.63" y2="137.19"/>
	</g>
</g>
</svg>
